<svg id="Layer_1" data-name="Layer 1" xmlns="http://www.w3.org/2000/svg" viewBox="0 0 1036.17 1036.17"><defs><style>.cls-1{fill:#f6f6f6;stroke:#1b1c1e;}.cls-1,.cls-2{stroke-miterlimit:10;stroke-width:50px;}.cls-2{fill:none;stroke:#000;}</style></defs><rect class="cls-1" x="25" y="25" width="986.17" height="986.17" rx="100.81"/><path class="cls-2" d="M1332,904.18H1230.06l72.11-72.11a37.32,37.32,0,0,0,0-52.79l-82.72-82.72a37.32,37.32,0,0,0-52.79,0l-71.91,71.9V667a37.33,37.33,0,0,0-37.33-37.33h-117A37.33,37.33,0,0,0,903.11,667V768.46l-71.91-71.9a37.32,37.32,0,0,0-52.79,0l-82.72,82.72a37.32,37.32,0,0,0,0,52.79l72.11,72.11H665.91a37.33,37.33,0,0,0-37.33,37.33v117a37.33,37.33,0,0,0,37.33,37.33H767.39l-71.7,71.7a37.32,37.32,0,0,0,0,52.79L778.41,1303a37.32,37.32,0,0,0,52.79,0l71.91-71.9V1333a37.33,37.33,0,0,0,37.33,37.33h117a37.33,37.33,0,0,0,37.33-37.33V1231.13l71.91,71.9a37.32,37.32,0,0,0,52.79,0l82.72-82.72a37.32,37.32,0,0,0,0-52.79l-71.7-71.7H1332a37.33,37.33,0,0,0,37.33-37.33v-117A37.33,37.33,0,0,0,1332,904.18Z" transform="translate(-480.85 -481.92)"/></svg>