<svg id="Layer_1" data-name="Layer 1" xmlns="http://www.w3.org/2000/svg" viewBox="0 0 1000.4 1000.29"><defs><style>.cls-1{fill:none;stroke:#000;stroke-miterlimit:10;stroke-width:75px;}</style></defs><path class="cls-1" d="M934.15,398.38H806.8l90.08-90.09a46.61,46.61,0,0,0,0-65.93l0,0L793.54,139a46.62,46.62,0,0,0-65.93,0h0l-89.84,89.83V102.08a46.64,46.64,0,0,0-46.64-46.64H445a46.63,46.63,0,0,0-46.61,46.64V228.83L308.51,139a46.62,46.62,0,0,0-65.93,0h0L139.22,242.34a46.62,46.62,0,0,0,0,65.94h0l90.09,90.09H102A46.64,46.64,0,0,0,55.38,445h0V591.18A46.64,46.64,0,0,0,102,637.82H228.8l-89.58,89.57a46.61,46.61,0,0,0,0,65.93v0L242.56,896.62a46.63,46.63,0,0,0,65.94,0h0l89.84-89.83v127.3A46.64,46.64,0,0,0,445,980.73H591.15a46.64,46.64,0,0,0,46.63-46.64V806.83l89.84,89.82a46.62,46.62,0,0,0,65.94,0v0L896.91,793.31a46.61,46.61,0,0,0,0-65.93v0l-89.57-89.57H934.15a46.64,46.64,0,0,0,46.64-46.63V445A46.64,46.64,0,0,0,934.15,398.38Z" transform="translate(-17.88 -17.94)"/></svg>